<svg xmlns="http://www.w3.org/2000/svg" id="svg1" version="1.1" viewBox="0 0 132.29166 52.916666" height="200" width="500">
  
  <defs id="defs1"></defs>
  <g id="layer1">
    <path aria-label="最大震度色" style="font-weight:bold;font-size:4.9389px;line-height:1.1;font-family:'BIZ UDPGothic';-inkscape-font-specification:'BIZ UDPGothic Bold';fill:#ffffff;stroke-width:0.264583" id="text1" d="m 58.093593,24.191456 v 1.512055 H 54.48347 V 24.191456 Z M 55.02125,24.53631 v 0.248392 h 2.534563 V 24.53631 Z m 0,0.564308 v 0.282154 h 2.534563 v -0.282154 z m 1.205786,1.268487 v 2.011252 q 0.470257,-0.127814 0.860932,-0.438907 -0.366559,-0.426848 -0.554662,-0.918809 H 56.325911 V 26.63679 h 1.861734 l 0.236334,0.207395 q -0.262862,0.636655 -0.65836,1.092442 0.354502,0.231511 0.887459,0.393087 l -0.296623,0.441317 q -0.549839,-0.207395 -0.926044,-0.50643 -0.412379,0.340032 -0.967041,0.540192 l -0.236334,-0.354501 v 0.330386 h -0.499195 v -0.537781 q -0.684887,0.13746 -1.695335,0.24598 l -0.132637,-0.443729 q 0.318328,-0.01688 0.542604,-0.03376 v -1.642281 h -0.504019 v -0.400321 h 4.69292 v 0.400321 z m -0.499195,0 h -0.790996 v 0.291801 h 0.790996 z m 0,0.61254 h -0.790996 v 0.296623 h 0.790996 z m 0,0.612539 h -0.790996 v 0.368971 q 0.204984,-0.02171 0.308681,-0.03376 0.277331,-0.02894 0.482315,-0.05547 z m 1.673631,0.041 q 0.219453,-0.253215 0.395498,-0.61254 h -0.817523 q 0.149517,0.325563 0.422025,0.61254 z m 4.157551,-1.813503 q 0.166398,0.564308 0.631831,1.200963 0.56672,0.776527 1.393889,1.229902 l -0.344855,0.496784 q -0.8754,-0.516076 -1.461412,-1.367361 -0.315916,-0.463022 -0.506431,-0.942925 -0.190514,0.646301 -0.590835,1.174436 -0.588423,0.781349 -1.454178,1.152731 L 58.887,28.32489 q 0.906752,-0.378616 1.463825,-1.167201 0.467845,-0.665593 0.554661,-1.336011 h -1.924434 v -0.523311 h 1.946139 v -1.162378 h 0.557073 v 1.162378 h 1.987135 v 0.523311 z m 4.331183,-1.082796 v -0.207395 h -1.507232 v -0.344855 h 3.55948 v 0.344855 h -1.538583 v 0.207395 h 1.996782 v 0.865755 h -0.523311 v -0.554662 h -1.473471 v 0.938102 h -0.513665 v -0.938102 h -1.446943 v 0.554662 h -0.518488 v -0.865755 z m 1.707394,3.422022 q 0.36897,0.139871 0.92122,0.221864 l -0.282154,0.409967 q -0.774115,-0.132636 -1.270898,-0.455787 -0.494373,-0.32315 -0.769292,-0.803053 h -0.532957 v 0.742764 q 0.532957,-0.07476 0.988744,-0.159164 l 0.03376,0.359324 q -0.848873,0.202573 -1.941315,0.35209 l -0.142283,-0.424437 q 0.378617,-0.041 0.518488,-0.05788 l 0.02894,-0.0048 v -0.807876 h -0.528135 q -0.03376,0.424436 -0.110932,0.677652 -0.09164,0.303858 -0.294212,0.566719 l -0.42926,-0.354501 q 0.236334,-0.30627 0.294212,-0.716237 0.03135,-0.221865 0.03135,-0.55225 v -1.022507 h 4.162373 v 0.320739 h -3.643885 v 0.740353 h 3.851281 v 0.340032 H 67.93522 l 0.306269,0.202572 q -0.272507,0.226688 -0.643889,0.424437 z m -0.376206,-0.185692 q 0.347267,-0.236334 0.55225,-0.441317 h -1.053857 q 0.207395,0.265273 0.501607,0.441317 z m -2.565913,-2.74678 h 1.02733 v 0.272507 h -1.02733 z m 0,0.443729 h 1.02733 v 0.277331 h -1.02733 z m 1.955785,-0.443729 h 1.058681 v 0.272507 h -1.058681 z m 0,0.443729 h 1.058681 v 0.277331 h -1.058681 z m -1.692923,0.983921 h 3.002407 v 0.315916 h -3.002407 z m 6.559476,-2.134241 h 1.890673 v 0.405144 h -1.070738 v 0.400321 h 1.003214 v 0.390675 h -1.003214 v 0.718648 h -1.941316 v -0.718648 h -0.790996 v 0.448552 q 0,1.092442 -0.115755,1.726686 -0.08923,0.482314 -0.289389,0.880224 l -0.438906,-0.347267 q 0.18328,-0.397909 0.250804,-0.971863 0.06029,-0.504019 0.06029,-1.28778 v -1.644692 h 1.907554 v -0.434083 h 0.53778 z m -1.912377,0.405144 v 0.400321 h 0.790996 v -0.400321 z m 1.304661,0 v 0.400321 h 0.913986 v -0.400321 z m 0,0.790996 v 0.373794 h 0.913986 v -0.373794 z m 0.559485,2.532151 q -0.696945,0.361736 -1.770094,0.549838 L 69.40869,28.356241 q 1.008037,-0.120579 1.57958,-0.368971 -0.489549,-0.354501 -0.836815,-0.841638 h -0.332797 v -0.419614 h 2.823951 l 0.253215,0.212218 q -0.359325,0.55225 -1.024918,1.039388 0.571542,0.229099 1.557875,0.33762 l -0.282154,0.455787 q -0.945336,-0.127813 -1.717039,-0.520899 z m -0.716237,-1.1045 q 0.2918,0.342443 0.709002,0.602893 0.470257,-0.303858 0.725883,-0.602893 z m 4.1262,-0.144695 v 0.875401 q 0,0.190514 0.139871,0.229099 0.207395,0.05788 1.372185,0.05788 1.034564,0 1.287779,-0.06029 0.120579,-0.02894 0.154341,-0.135048 0.041,-0.120579 0.06511,-0.561897 l 0.532958,0.163987 q -0.02653,0.47508 -0.07717,0.651125 -0.06511,0.229099 -0.241158,0.311093 -0.125401,0.05788 -0.347266,0.07235 -0.571543,0.041 -1.492763,0.041 -1.290191,0 -1.53376,-0.04582 -0.274919,-0.05064 -0.354501,-0.241158 -0.03858,-0.09646 -0.03858,-0.241157 V 25.64081 l -0.02412,0.01929 q -0.110933,0.07958 -0.262862,0.176045 l -0.330385,-0.400321 q 0.860931,-0.472668 1.45659,-1.348069 l 0.33762,0.231511 h 1.372184 l 0.255627,0.265273 q -0.318327,0.450964 -0.665594,0.8127 h 1.545818 v 1.603695 z m 0,-0.42926 h 1.036976 v -0.730706 h -1.036976 z m 1.555464,-0.730706 v 0.730706 h 1.05868 V 25.840971 Z M 75.83553,25.397242 q 0.311093,-0.325563 0.530546,-0.639067 H 75.25193 q -0.267685,0.327974 -0.636655,0.639067 z"></path>
  </g>
</svg>
